# Blender v3.0.0 OBJ File: 'Sphere_LODs.blend'
# www.blender.org
mtllib LOD_L.mtl
o Sphere.003
v 0.000000 1.707107 -0.707107
v 0.000000 1.000000 -1.000000
v 0.000000 0.292893 -0.707107
v 0.500000 1.707107 -0.500000
v 0.707107 1.000000 -0.707107
v 0.500000 0.292893 -0.500000
v 0.707107 1.707107 0.000000
v 1.000000 1.000000 0.000000
v 0.707107 0.292893 0.000000
v 0.500000 1.707107 0.500000
v 0.707107 1.000000 0.707107
v 0.500000 0.292893 0.500000
v 0.000000 0.000000 0.000000
v 0.000000 1.707107 0.707107
v 0.000000 1.000000 1.000000
v 0.000000 0.292893 0.707107
v -0.000000 2.000000 0.000000
v -0.500000 1.707107 0.500000
v -0.707107 1.000000 0.707107
v -0.500000 0.292893 0.500000
v -0.707107 1.707107 0.000000
v -1.000000 1.000000 0.000000
v -0.707107 0.292893 0.000000
v -0.500000 1.707107 -0.500000
v -0.707107 1.000000 -0.707107
v -0.500000 0.292893 -0.500000
vt 0.750000 0.250000
vt 0.750000 0.500000
vt 0.625000 0.500000
vt 0.625000 0.250000
vt 0.750000 0.750000
vt 0.687500 1.000000
vt 0.625000 0.750000
vt 0.687500 0.000000
vt 0.562500 1.000000
vt 0.500000 0.750000
vt 0.562500 0.000000
vt 0.500000 0.250000
vt 0.500000 0.500000
vt 0.375000 0.500000
vt 0.375000 0.250000
vt 0.437500 1.000000
vt 0.375000 0.750000
vt 0.437500 0.000000
vt 0.250000 0.500000
vt 0.250000 0.250000
vt 0.312500 1.000000
vt 0.250000 0.750000
vt 0.312500 0.000000
vt 0.125000 0.500000
vt 0.125000 0.250000
vt 0.187500 1.000000
vt 0.125000 0.750000
vt 0.187500 0.000000
vt 0.000000 0.500000
vt 0.000000 0.250000
vt 0.062500 1.000000
vt 0.000000 0.750000
vt 0.062500 0.000000
vt 1.000000 0.250000
vt 1.000000 0.500000
vt 0.875000 0.500000
vt 0.875000 0.250000
vt 1.000000 0.750000
vt 0.937500 1.000000
vt 0.875000 0.750000
vt 0.937500 0.000000
vt 0.812500 1.000000
vt 0.812500 0.000000
vn 0.0000 -0.6630 -0.7486
vn 0.0000 0.0000 -1.0000
vn 0.7071 0.0000 -0.7071
vn 0.5293 -0.6630 -0.5293
vn 0.0000 0.6630 -0.7486
vn 0.0000 1.0000 0.0000
vn 0.5293 0.6630 -0.5293
vn 0.0000 -1.0000 0.0000
vn 0.7486 0.6630 0.0000
vn 0.7486 -0.6630 0.0000
vn 1.0000 0.0000 0.0000
vn 0.7071 0.0000 0.7071
vn 0.5293 -0.6630 0.5293
vn 0.5293 0.6630 0.5293
vn 0.0000 0.0000 1.0000
vn 0.0000 -0.6630 0.7486
vn 0.0000 0.6630 0.7486
vn -0.7071 0.0000 0.7071
vn -0.5293 -0.6630 0.5293
vn -0.5293 0.6630 0.5293
vn -1.0000 0.0000 0.0000
vn -0.7486 -0.6630 0.0000
vn -0.7486 0.6630 0.0000
vn -0.7071 0.0000 -0.7071
vn -0.5293 -0.6630 -0.5293
vn -0.5293 0.6630 -0.5293
usemtl Material.001
s 1
f 3/1/1 2/2/2 5/3/3 6/4/4
f 1/5/5 17/6/6 4/7/7
f 13/8/8 3/1/1 6/4/4
f 2/2/2 1/5/5 4/7/7 5/3/3
f 4/7/7 17/9/6 7/10/9
f 13/11/8 6/4/4 9/12/10
f 5/3/3 4/7/7 7/10/9 8/13/11
f 6/4/4 5/3/3 8/13/11 9/12/10
f 9/12/10 8/13/11 11/14/12 12/15/13
f 7/10/9 17/16/6 10/17/14
f 13/18/8 9/12/10 12/15/13
f 8/13/11 7/10/9 10/17/14 11/14/12
f 12/15/13 11/14/12 15/19/15 16/20/16
f 10/17/14 17/21/6 14/22/17
f 13/23/8 12/15/13 16/20/16
f 11/14/12 10/17/14 14/22/17 15/19/15
f 16/20/16 15/19/15 19/24/18 20/25/19
f 14/22/17 17/26/6 18/27/20
f 13/28/8 16/20/16 20/25/19
f 15/19/15 14/22/17 18/27/20 19/24/18
f 20/25/19 19/24/18 22/29/21 23/30/22
f 18/27/20 17/31/6 21/32/23
f 13/33/8 20/25/19 23/30/22
f 19/24/18 18/27/20 21/32/23 22/29/21
f 23/34/22 22/35/21 25/36/24 26/37/25
f 21/38/23 17/39/6 24/40/26
f 13/41/8 23/34/22 26/37/25
f 22/35/21 21/38/23 24/40/26 25/36/24
f 25/36/24 24/40/26 1/5/5 2/2/2
f 26/37/25 25/36/24 2/2/2 3/1/1
f 24/40/26 17/42/6 1/5/5
f 13/43/8 26/37/25 3/1/1
