# Blender v3.0.0 OBJ File: 'Sphere_LODs.blend'
# www.blender.org
mtllib LOD_M.mtl
o Sphere.002
v 0.000000 1.707107 -0.707107
v 0.000000 1.382683 -0.923880
v 0.000000 0.617317 -0.923880
v 0.000000 0.076120 -0.382683
v 0.146447 1.923880 -0.353553
v 0.270598 1.707107 -0.653281
v 0.353553 1.382683 -0.853553
v 0.382683 1.000000 -0.923880
v 0.353553 0.617317 -0.853553
v 0.270598 0.292893 -0.653281
v 0.146447 0.076120 -0.353553
v 0.270598 1.923880 -0.270598
v 0.500000 1.707107 -0.500000
v 0.653282 1.382683 -0.653281
v 0.707107 1.000000 -0.707107
v 0.653282 0.617317 -0.653281
v 0.500000 0.292893 -0.500000
v 0.270598 0.076120 -0.270598
v 0.353554 1.923880 -0.146447
v 0.653282 1.707107 -0.270598
v 0.853554 1.382683 -0.353553
v 0.923880 1.000000 -0.382683
v 0.853554 0.617317 -0.353553
v 0.653282 0.292893 -0.270598
v 0.353554 0.076120 -0.146447
v 0.382684 1.923880 0.000000
v 0.707107 1.707107 0.000000
v 0.923880 1.382683 0.000000
v 1.000000 1.000000 0.000000
v 0.923880 0.617317 0.000000
v 0.707107 0.292893 0.000000
v 0.382684 0.076120 0.000000
v 0.353553 1.923880 0.146447
v 0.653282 1.707107 0.270598
v 0.853553 1.382683 0.353554
v 0.923879 1.000000 0.382684
v 0.853553 0.617317 0.353554
v 0.653282 0.292893 0.270598
v 0.353553 0.076120 0.146447
v 0.270598 1.923880 0.270598
v 0.500000 1.707107 0.500000
v 0.653281 1.382683 0.653282
v 0.707107 1.000000 0.707107
v 0.653281 0.617317 0.653282
v 0.500000 0.292893 0.500000
v 0.270598 0.076120 0.270598
v 0.146447 1.923880 0.353554
v 0.270598 1.707107 0.653282
v 0.353553 1.382683 0.853554
v 0.382683 1.000000 0.923880
v 0.353553 0.617317 0.853554
v 0.270598 0.292893 0.653282
v 0.146447 0.076120 0.353554
v -0.000000 2.000000 0.000000
v -0.000000 1.923880 0.382684
v -0.000000 1.707107 0.707107
v -0.000000 1.382683 0.923880
v -0.000000 1.000000 1.000000
v -0.000000 0.617317 0.923880
v -0.000000 0.292893 0.707107
v -0.000000 0.076120 0.382684
v -0.146447 1.923880 0.353553
v -0.270598 1.707107 0.653282
v -0.353554 1.382683 0.853553
v -0.382684 1.000000 0.923880
v -0.353554 0.617317 0.853553
v -0.270598 0.292893 0.653282
v -0.146447 0.076120 0.353553
v -0.270598 1.923880 0.270598
v -0.500000 1.707107 0.500000
v -0.653282 1.382683 0.653281
v -0.707107 1.000000 0.707107
v -0.653282 0.617317 0.653281
v -0.500000 0.292893 0.500000
v -0.270598 0.076120 0.270598
v 0.000000 0.000000 0.000000
v -0.353553 1.923880 0.146447
v -0.653282 1.707107 0.270598
v -0.853553 1.382683 0.353553
v -0.923880 1.000000 0.382683
v -0.853553 0.617317 0.353553
v -0.653282 0.292893 0.270598
v -0.353553 0.076120 0.146447
v -0.382683 1.923880 -0.000000
v -0.707107 1.707107 -0.000000
v -0.923879 1.382683 -0.000000
v -1.000000 1.000000 -0.000000
v -0.923879 0.617317 -0.000000
v -0.707107 0.292893 -0.000000
v -0.382683 0.076120 -0.000000
v -0.353553 1.923880 -0.146447
v -0.653281 1.707107 -0.270598
v -0.853553 1.382683 -0.353554
v -0.923879 1.000000 -0.382684
v -0.853553 0.617317 -0.353554
v -0.653281 0.292893 -0.270598
v -0.353553 0.076120 -0.146447
v -0.270598 1.923880 -0.270598
v -0.500000 1.707107 -0.500000
v -0.653281 1.382683 -0.653282
v -0.707106 1.000000 -0.707107
v -0.653281 0.617317 -0.653282
v -0.500000 0.292893 -0.500000
v -0.270598 0.076120 -0.270598
v -0.146446 1.923880 -0.353553
v -0.270598 1.707107 -0.653281
v -0.353553 1.382683 -0.853553
v -0.382683 1.000000 -0.923880
v -0.353553 0.617317 -0.853553
v -0.270598 0.292893 -0.653281
v -0.146446 0.076120 -0.353553
v 0.000000 1.923880 -0.382683
v 0.000001 1.000000 -1.000000
v 0.000000 0.292893 -0.707107
vt 0.718750 0.000000
vt 0.750000 0.125000
vt 0.687500 0.125000
vt 0.750000 0.250000
vt 0.750000 0.375000
vt 0.687500 0.375000
vt 0.687500 0.250000
vt 0.750000 0.500000
vt 0.750000 0.625000
vt 0.687500 0.625000
vt 0.687500 0.500000
vt 0.750000 0.750000
vt 0.750000 0.875000
vt 0.687500 0.875000
vt 0.687500 0.750000
vt 0.718750 1.000000
vt 0.625000 0.875000
vt 0.625000 0.750000
vt 0.625000 0.250000
vt 0.625000 0.125000
vt 0.625000 0.500000
vt 0.625000 0.375000
vt 0.625000 0.625000
vt 0.656250 1.000000
vt 0.656250 0.000000
vt 0.562500 0.250000
vt 0.562500 0.125000
vt 0.562500 0.500000
vt 0.562500 0.375000
vt 0.562500 0.750000
vt 0.562500 0.625000
vt 0.593750 1.000000
vt 0.562500 0.875000
vt 0.593750 0.000000
vt 0.531250 1.000000
vt 0.500000 0.875000
vt 0.531250 0.000000
vt 0.500000 0.125000
vt 0.500000 0.375000
vt 0.500000 0.250000
vt 0.500000 0.625000
vt 0.500000 0.500000
vt 0.500000 0.750000
vt 0.437500 0.375000
vt 0.437500 0.250000
vt 0.437500 0.625000
vt 0.437500 0.500000
vt 0.437500 0.875000
vt 0.437500 0.750000
vt 0.437500 0.125000
vt 0.468750 1.000000
vt 0.468750 0.000000
vt 0.375000 0.250000
vt 0.375000 0.125000
vt 0.375000 0.500000
vt 0.375000 0.375000
vt 0.375000 0.750000
vt 0.375000 0.625000
vt 0.406250 1.000000
vt 0.375000 0.875000
vt 0.406250 0.000000
vt 0.312500 0.500000
vt 0.312500 0.375000
vt 0.312500 0.750000
vt 0.312500 0.625000
vt 0.343750 1.000000
vt 0.312500 0.875000
vt 0.343750 0.000000
vt 0.312500 0.125000
vt 0.312500 0.250000
vt 0.281250 0.000000
vt 0.250000 0.125000
vt 0.250000 0.375000
vt 0.250000 0.250000
vt 0.250000 0.625000
vt 0.250000 0.500000
vt 0.250000 0.875000
vt 0.250000 0.750000
vt 0.281250 1.000000
vt 0.187500 0.625000
vt 0.187500 0.500000
vt 0.187500 0.875000
vt 0.187500 0.750000
vt 0.187500 0.250000
vt 0.187500 0.125000
vt 0.187500 0.375000
vt 0.218750 1.000000
vt 0.218750 0.000000
vt 0.125000 0.250000
vt 0.125000 0.125000
vt 0.125000 0.500000
vt 0.125000 0.375000
vt 0.125000 0.750000
vt 0.125000 0.625000
vt 0.156250 1.000000
vt 0.125000 0.875000
vt 0.156250 0.000000
vt 0.062500 0.750000
vt 0.062500 0.625000
vt 0.093750 1.000000
vt 0.062500 0.875000
vt 0.093750 0.000000
vt 0.062500 0.125000
vt 0.062500 0.375000
vt 0.062500 0.250000
vt 0.062500 0.500000
vt 0.031250 0.000000
vt 0.000000 0.125000
vt 0.000000 0.375000
vt 0.000000 0.250000
vt 0.000000 0.625000
vt 0.000000 0.500000
vt 0.000000 0.875000
vt 0.000000 0.750000
vt 0.031250 1.000000
vt 1.000000 0.750000
vt 1.000000 0.875000
vt 0.937500 0.875000
vt 0.937500 0.750000
vt 1.000000 0.125000
vt 1.000000 0.250000
vt 0.937500 0.250000
vt 0.937500 0.125000
vt 1.000000 0.375000
vt 1.000000 0.500000
vt 0.937500 0.500000
vt 0.937500 0.375000
vt 1.000000 0.625000
vt 0.937500 0.625000
vt 0.968750 1.000000
vt 0.968750 0.000000
vt 0.875000 0.250000
vt 0.875000 0.125000
vt 0.875000 0.500000
vt 0.875000 0.375000
vt 0.875000 0.750000
vt 0.875000 0.625000
vt 0.906250 1.000000
vt 0.875000 0.875000
vt 0.906250 0.000000
vt 0.843750 1.000000
vt 0.812500 0.875000
vt 0.843750 0.000000
vt 0.812500 0.125000
vt 0.812500 0.375000
vt 0.812500 0.250000
vt 0.812500 0.625000
vt 0.812500 0.500000
vt 0.812500 0.750000
vt 0.781250 1.000000
vt 0.781250 0.000000
vn 0.0000 -1.0000 0.0000
vn 0.0000 -0.9152 -0.4031
vn 0.1542 -0.9152 -0.3724
vn 0.0000 -0.6952 -0.7188
vn 0.0000 -0.3743 -0.9273
vn 0.3548 -0.3743 -0.8567
vn 0.2751 -0.6952 -0.6641
vn 0.0000 0.0000 -1.0000
vn 0.0000 0.3743 -0.9273
vn 0.3548 0.3743 -0.8567
vn 0.3827 0.0000 -0.9239
vn 0.0000 0.6952 -0.7188
vn 0.0000 0.9152 -0.4031
vn 0.1542 0.9152 -0.3724
vn 0.2751 0.6952 -0.6641
vn 0.0000 1.0000 0.0000
vn 0.2850 0.9152 -0.2850
vn 0.5083 0.6952 -0.5083
vn 0.5083 -0.6952 -0.5083
vn 0.2850 -0.9152 -0.2850
vn 0.7071 0.0000 -0.7071
vn 0.6557 -0.3743 -0.6557
vn 0.6557 0.3743 -0.6557
vn 0.6641 -0.6952 -0.2751
vn 0.3724 -0.9152 -0.1542
vn 0.9239 0.0000 -0.3827
vn 0.8567 -0.3743 -0.3548
vn 0.6641 0.6952 -0.2751
vn 0.8567 0.3743 -0.3548
vn 0.3724 0.9152 -0.1542
vn 0.4031 0.9152 0.0000
vn 0.4031 -0.9152 0.0000
vn 0.9273 -0.3743 0.0000
vn 0.7188 -0.6952 0.0000
vn 0.9273 0.3743 0.0000
vn 1.0000 0.0000 0.0000
vn 0.7188 0.6952 0.0000
vn 0.8567 -0.3743 0.3548
vn 0.6641 -0.6952 0.2751
vn 0.8567 0.3743 0.3548
vn 0.9239 0.0000 0.3827
vn 0.3724 0.9152 0.1542
vn 0.6641 0.6952 0.2751
vn 0.3724 -0.9152 0.1542
vn 0.5083 -0.6952 0.5083
vn 0.2850 -0.9152 0.2850
vn 0.7071 0.0000 0.7071
vn 0.6557 -0.3743 0.6557
vn 0.5083 0.6952 0.5083
vn 0.6557 0.3743 0.6557
vn 0.2850 0.9152 0.2850
vn 0.3827 0.0000 0.9239
vn 0.3548 -0.3743 0.8567
vn 0.2751 0.6952 0.6641
vn 0.3548 0.3743 0.8567
vn 0.1542 0.9152 0.3724
vn 0.1542 -0.9152 0.3724
vn 0.2751 -0.6952 0.6641
vn 0.0000 -0.9152 0.4031
vn 0.0000 -0.3743 0.9273
vn 0.0000 -0.6952 0.7188
vn 0.0000 0.3743 0.9273
vn 0.0000 0.0000 1.0000
vn 0.0000 0.9152 0.4031
vn 0.0000 0.6952 0.7188
vn -0.3548 0.3743 0.8567
vn -0.3827 0.0000 0.9239
vn -0.1542 0.9152 0.3724
vn -0.2751 0.6952 0.6641
vn -0.2751 -0.6952 0.6641
vn -0.1542 -0.9152 0.3724
vn -0.3548 -0.3743 0.8567
vn -0.5083 -0.6952 0.5083
vn -0.2850 -0.9152 0.2850
vn -0.7071 0.0000 0.7071
vn -0.6557 -0.3743 0.6557
vn -0.5083 0.6952 0.5083
vn -0.6557 0.3743 0.6557
vn -0.2850 0.9152 0.2850
vn -0.6641 0.6952 0.2751
vn -0.8567 0.3743 0.3548
vn -0.3724 0.9152 0.1542
vn -0.3724 -0.9152 0.1542
vn -0.8567 -0.3743 0.3548
vn -0.6641 -0.6952 0.2751
vn -0.9239 0.0000 0.3827
vn -0.4031 -0.9152 0.0000
vn -0.9273 -0.3743 0.0000
vn -0.7188 -0.6952 0.0000
vn -0.9273 0.3743 0.0000
vn -1.0000 0.0000 0.0000
vn -0.4031 0.9152 0.0000
vn -0.7188 0.6952 0.0000
vn -0.3724 0.9152 -0.1542
vn -0.6641 0.6952 -0.2751
vn -0.6641 -0.6952 -0.2751
vn -0.3724 -0.9152 -0.1542
vn -0.9239 0.0000 -0.3827
vn -0.8567 -0.3743 -0.3548
vn -0.8567 0.3743 -0.3548
vn -0.5083 -0.6952 -0.5083
vn -0.2850 -0.9152 -0.2850
vn -0.7071 0.0000 -0.7071
vn -0.6557 -0.3743 -0.6557
vn -0.5083 0.6952 -0.5083
vn -0.6557 0.3743 -0.6557
vn -0.2850 0.9152 -0.2850
vn -0.1542 0.9152 -0.3724
vn -0.1542 -0.9152 -0.3724
vn -0.3548 -0.3743 -0.8567
vn -0.2751 -0.6952 -0.6641
vn -0.3548 0.3743 -0.8567
vn -0.3827 0.0000 -0.9239
vn -0.2751 0.6952 -0.6641
usemtl Material.001
s 1
f 76/1/1 4/2/2 11/3/3
f 114/4/4 3/5/5 9/6/6 10/7/7
f 113/8/8 2/9/9 7/10/10 8/11/11
f 1/12/12 112/13/13 5/14/14 6/15/15
f 4/2/2 114/4/4 10/7/7 11/3/3
f 3/5/5 113/8/8 8/11/11 9/6/6
f 2/9/9 1/12/12 6/15/15 7/10/10
f 112/13/13 54/16/16 5/14/14
f 6/15/15 5/14/14 12/17/17 13/18/18
f 11/3/3 10/7/7 17/19/19 18/20/20
f 9/6/6 8/11/11 15/21/21 16/22/22
f 7/10/10 6/15/15 13/18/18 14/23/23
f 5/14/14 54/24/16 12/17/17
f 76/25/1 11/3/3 18/20/20
f 10/7/7 9/6/6 16/22/22 17/19/19
f 8/11/11 7/10/10 14/23/23 15/21/21
f 18/20/20 17/19/19 24/26/24 25/27/25
f 16/22/22 15/21/21 22/28/26 23/29/27
f 14/23/23 13/18/18 20/30/28 21/31/29
f 12/17/17 54/32/16 19/33/30
f 76/34/1 18/20/20 25/27/25
f 17/19/19 16/22/22 23/29/27 24/26/24
f 15/21/21 14/23/23 21/31/29 22/28/26
f 13/18/18 12/17/17 19/33/30 20/30/28
f 19/33/30 54/35/16 26/36/31
f 76/37/1 25/27/25 32/38/32
f 24/26/24 23/29/27 30/39/33 31/40/34
f 22/28/26 21/31/29 28/41/35 29/42/36
f 20/30/28 19/33/30 26/36/31 27/43/37
f 25/27/25 24/26/24 31/40/34 32/38/32
f 23/29/27 22/28/26 29/42/36 30/39/33
f 21/31/29 20/30/28 27/43/37 28/41/35
f 31/40/34 30/39/33 37/44/38 38/45/39
f 29/42/36 28/41/35 35/46/40 36/47/41
f 27/43/37 26/36/31 33/48/42 34/49/43
f 32/38/32 31/40/34 38/45/39 39/50/44
f 30/39/33 29/42/36 36/47/41 37/44/38
f 28/41/35 27/43/37 34/49/43 35/46/40
f 26/36/31 54/51/16 33/48/42
f 76/52/1 32/38/32 39/50/44
f 39/50/44 38/45/39 45/53/45 46/54/46
f 37/44/38 36/47/41 43/55/47 44/56/48
f 35/46/40 34/49/43 41/57/49 42/58/50
f 33/48/42 54/59/16 40/60/51
f 76/61/1 39/50/44 46/54/46
f 38/45/39 37/44/38 44/56/48 45/53/45
f 36/47/41 35/46/40 42/58/50 43/55/47
f 34/49/43 33/48/42 40/60/51 41/57/49
f 44/56/48 43/55/47 50/62/52 51/63/53
f 42/58/50 41/57/49 48/64/54 49/65/55
f 40/60/51 54/66/16 47/67/56
f 76/68/1 46/54/46 53/69/57
f 45/53/45 44/56/48 51/63/53 52/70/58
f 43/55/47 42/58/50 49/65/55 50/62/52
f 41/57/49 40/60/51 47/67/56 48/64/54
f 46/54/46 45/53/45 52/70/58 53/69/57
f 76/71/1 53/69/57 61/72/59
f 52/70/58 51/63/53 59/73/60 60/74/61
f 50/62/52 49/65/55 57/75/62 58/76/63
f 48/64/54 47/67/56 55/77/64 56/78/65
f 53/69/57 52/70/58 60/74/61 61/72/59
f 51/63/53 50/62/52 58/76/63 59/73/60
f 49/65/55 48/64/54 56/78/65 57/75/62
f 47/67/56 54/79/16 55/77/64
f 58/76/63 57/75/62 64/80/66 65/81/67
f 56/78/65 55/77/64 62/82/68 63/83/69
f 61/72/59 60/74/61 67/84/70 68/85/71
f 59/73/60 58/76/63 65/81/67 66/86/72
f 57/75/62 56/78/65 63/83/69 64/80/66
f 55/77/64 54/87/16 62/82/68
f 76/88/1 61/72/59 68/85/71
f 60/74/61 59/73/60 66/86/72 67/84/70
f 68/85/71 67/84/70 74/89/73 75/90/74
f 66/86/72 65/81/67 72/91/75 73/92/76
f 64/80/66 63/83/69 70/93/77 71/94/78
f 62/82/68 54/95/16 69/96/79
f 76/97/1 68/85/71 75/90/74
f 67/84/70 66/86/72 73/92/76 74/89/73
f 65/81/67 64/80/66 71/94/78 72/91/75
f 63/83/69 62/82/68 69/96/79 70/93/77
f 71/94/78 70/93/77 78/98/80 79/99/81
f 69/96/79 54/100/16 77/101/82
f 76/102/1 75/90/74 83/103/83
f 74/89/73 73/92/76 81/104/84 82/105/85
f 72/91/75 71/94/78 79/99/81 80/106/86
f 70/93/77 69/96/79 77/101/82 78/98/80
f 75/90/74 74/89/73 82/105/85 83/103/83
f 73/92/76 72/91/75 80/106/86 81/104/84
f 76/107/1 83/103/83 90/108/87
f 82/105/85 81/104/84 88/109/88 89/110/89
f 80/106/86 79/99/81 86/111/90 87/112/91
f 78/98/80 77/101/82 84/113/92 85/114/93
f 83/103/83 82/105/85 89/110/89 90/108/87
f 81/104/84 80/106/86 87/112/91 88/109/88
f 79/99/81 78/98/80 85/114/93 86/111/90
f 77/101/82 54/115/16 84/113/92
f 85/116/93 84/117/92 91/118/94 92/119/95
f 90/120/87 89/121/89 96/122/96 97/123/97
f 88/124/88 87/125/91 94/126/98 95/127/99
f 86/128/90 85/116/93 92/119/95 93/129/100
f 84/117/92 54/130/16 91/118/94
f 76/131/1 90/120/87 97/123/97
f 89/121/89 88/124/88 95/127/99 96/122/96
f 87/125/91 86/128/90 93/129/100 94/126/98
f 97/123/97 96/122/96 103/132/101 104/133/102
f 95/127/99 94/126/98 101/134/103 102/135/104
f 93/129/100 92/119/95 99/136/105 100/137/106
f 91/118/94 54/138/16 98/139/107
f 76/140/1 97/123/97 104/133/102
f 96/122/96 95/127/99 102/135/104 103/132/101
f 94/126/98 93/129/100 100/137/106 101/134/103
f 92/119/95 91/118/94 98/139/107 99/136/105
f 98/139/107 54/141/16 105/142/108
f 76/143/1 104/133/102 111/144/109
f 103/132/101 102/135/104 109/145/110 110/146/111
f 101/134/103 100/137/106 107/147/112 108/148/113
f 99/136/105 98/139/107 105/142/108 106/149/114
f 104/133/102 103/132/101 110/146/111 111/144/109
f 102/135/104 101/134/103 108/148/113 109/145/110
f 100/137/106 99/136/105 106/149/114 107/147/112
f 110/146/111 109/145/110 3/5/5 114/4/4
f 108/148/113 107/147/112 2/9/9 113/8/8
f 106/149/114 105/142/108 112/13/13 1/12/12
f 111/144/109 110/146/111 114/4/4 4/2/2
f 109/145/110 108/148/113 113/8/8 3/5/5
f 107/147/112 106/149/114 1/12/12 2/9/9
f 105/142/108 54/150/16 112/13/13
f 76/151/1 111/144/109 4/2/2
