# Blender v2.93.6 OBJ File: 'MapModel.blend'
# www.blender.org
mtllib MapModel.mtl
o Cube.004
v -5.630570 -1.000000 -2.400585
v -5.630570 1.000000 -2.400585
v -5.630570 -1.000000 -4.400585
v -5.630570 1.000000 -4.400585
v -3.191942 -1.000000 -2.400585
v -3.191942 1.000000 -2.400585
v -3.191942 -1.000000 -4.400585
v -3.191942 1.000000 -4.400585
v 1.000000 1.000000 -1.000000
v 1.000000 -1.000000 -1.000000
v 1.000000 0.942840 1.000000
v 1.000000 -1.000000 1.000000
v -6.687731 1.000000 -1.000000
v -6.687731 -1.000000 -1.000000
v -6.687731 1.000000 1.000000
v -6.687731 -1.000000 1.000000
v -1.002820 -1.000000 -1.000000
v -1.002820 -1.000000 -1.000000
v -1.002820 1.000000 -1.000000
v -1.881035 -1.000000 -1.000000
v -1.881035 1.000000 -1.000000
v -1.002820 -1.000000 -2.400248
v -1.002820 1.000000 -2.400248
v -2.661888 -1.000000 -2.401246
v -2.661888 1.000000 -2.401246
v -2.661888 -1.000000 -4.414752
v -2.661888 1.000000 -4.414752
v -0.223260 -1.000000 -2.401246
v -0.223260 1.000000 -2.401246
v -0.223260 -1.000000 -4.414752
v -0.223260 1.000000 -4.414752
v -0.223260 1.000000 -2.401246
v -1.451827 -1.000000 4.691014
v -1.451827 1.000000 4.691014
v -1.451827 -1.000000 2.691014
v -1.451827 1.000000 2.691014
v 1.009743 -1.000000 4.691014
v 1.009743 1.000000 4.691014
v 1.009743 -1.000000 2.691014
v 1.009743 1.000000 2.691014
v -4.072921 -1.010538 4.691014
v -4.072921 0.989462 4.691014
v -4.072921 -1.010538 2.691014
v -4.072921 0.989462 2.691014
v -1.611351 -1.010538 4.691014
v -1.611351 0.989462 4.691014
v -1.611351 -1.010538 2.691014
v -1.611351 0.989462 2.691014
v -6.672513 -1.000000 4.691014
v -6.672513 1.000000 4.691014
v -6.672513 -1.000000 2.691014
v -6.672513 1.000000 2.691014
v -4.210942 -1.000000 4.691014
v -4.210942 1.000000 4.691014
v -4.210942 -1.000000 2.691014
v -4.210942 1.000000 2.691014
v -1.881598 -1.000000 -2.393939
v -1.881596 1.000000 -2.393939
v -0.663331 0.971420 1.000000
v 0.209968 0.957130 1.000000
v 0.210035 0.978565 2.691076
v -0.663913 0.980351 2.691040
v -0.664251 -1.000000 2.692210
v -0.665261 -1.000000 1.000000
v 0.209629 -1.000000 1.000000
v 0.209629 -1.000000 1.000000
v 0.209435 -1.000000 2.691323
v -2.408319 0.985710 1.000000
v -2.408114 0.987586 2.691689
v -2.408454 -1.005269 2.691025
v -2.409000 -1.000000 1.000000
v -3.279533 0.992855 1.000000
v -3.279873 -1.000000 1.000000
v -3.279338 0.990690 2.692380
v -3.279593 -1.003952 2.692214
v -5.008999 0.996427 1.000000
v -5.009002 0.998214 2.690843
v -5.009105 -1.000000 2.690875
v -5.008179 0.998214 1.000000
v -5.008953 -1.000000 1.000000
v -5.880787 -1.000000 1.000000
v -5.880792 0.999107 1.000000
v -5.880593 -1.000000 2.691634
v -5.880625 0.999107 2.691623
v -3.978908 -1.000000 -1.000000
v -3.978908 1.000000 -1.000000
v -3.978896 -1.000000 -2.400587
v -3.978896 1.000000 -2.400587
v -4.855199 -1.000000 -1.000000
v -4.855199 1.000000 -1.000000
v -4.855195 -1.000000 -2.400597
v -4.855195 1.000000 -2.400597
vt 0.375000 0.000000
vt 0.625000 0.000000
vt 0.625000 0.250000
vt 0.375000 0.250000
vt 0.625000 0.500000
vt 0.375000 0.500000
vt 0.625000 0.750000
vt 0.375000 0.750000
vt 0.375000 0.937500
vt 0.625000 0.937500
vt 0.625000 1.000000
vt 0.375000 1.000000
vt 0.125000 0.500000
vt 0.250000 0.750000
vt 0.187500 0.750000
vt 0.125000 0.750000
vt 0.875000 0.500000
vt 0.875000 0.750000
vt 0.812500 0.750000
vt 0.750000 0.750000
vt 0.375000 0.000000
vt 0.625000 0.000000
vt 0.625000 0.250000
vt 0.375000 0.250000
vt 0.625000 0.500000
vt 0.625000 0.448763
vt 0.625000 0.420204
vt 0.625000 0.335102
vt 0.625000 0.292551
vt 0.625000 0.011719
vt 0.625000 0.023438
vt 0.625000 0.046875
vt 0.625000 0.093750
vt 0.625000 0.187500
vt 0.625000 0.375000
vt 0.625000 0.562500
vt 0.625000 0.750000
vt 0.375000 0.500000
vt 0.375000 0.750000
vt 0.375000 0.448763
vt 0.250000 0.750000
vt 0.000000 0.000000
vt 0.000000 0.000000
vt 0.187500 0.750000
vt 0.375000 0.292551
vt 0.375000 0.335102
vt 0.375000 0.420204
vt 0.375000 0.562500
vt 0.375000 0.375000
vt 0.375000 0.187500
vt 0.375000 0.093750
vt 0.375000 0.046875
vt 0.375000 0.023438
vt 0.000000 0.000000
vt 0.000000 0.000000
vt 0.375000 0.000000
vt 0.625000 0.000000
vt 0.625000 0.250000
vt 0.375000 0.250000
vt 0.625000 0.500000
vt 0.375000 0.500000
vt 0.625000 0.750000
vt 0.375000 0.750000
vt 0.125000 0.500000
vt 0.125000 0.750000
vt 0.375000 0.000000
vt 0.625000 0.000000
vt 0.625000 0.250000
vt 0.375000 0.250000
vt 0.375000 0.750000
vt 0.625000 0.750000
vt 0.625000 1.000000
vt 0.375000 1.000000
vt 0.000000 0.000000
vt 0.000000 0.000000
vt 0.375000 0.000000
vt 0.625000 0.000000
vt 0.625000 0.250000
vt 0.375000 0.250000
vt 0.375000 0.375000
vt 0.625000 0.375000
vt 0.625000 0.500000
vt 0.375000 0.500000
vt 0.625000 0.750000
vt 0.375000 0.750000
vt 0.625000 1.000000
vt 0.375000 1.000000
vt 0.125000 0.500000
vt 0.187500 0.500000
vt 0.250000 0.500000
vt 0.125000 0.750000
vt 0.750000 0.500000
vt 0.812500 0.500000
vt 0.875000 0.500000
vt 0.875000 0.750000
vt 0.375000 0.000000
vt 0.625000 0.000000
vt 0.625000 0.250000
vt 0.375000 0.250000
vt 0.375000 0.375000
vt 0.625000 0.375000
vt 0.625000 0.500000
vt 0.375000 0.500000
vt 0.625000 0.750000
vt 0.375000 0.750000
vt 0.625000 1.000000
vt 0.375000 1.000000
vt 0.125000 0.500000
vt 0.187500 0.500000
vt 0.250000 0.500000
vt 0.125000 0.750000
vt 0.750000 0.500000
vt 0.812500 0.500000
vt 0.875000 0.500000
vt 0.875000 0.750000
vt 0.000000 0.000000
vt 0.000000 0.000000
vt 0.000000 0.000000
vt 0.000000 0.000000
vt 0.000000 0.000000
vt 0.000000 0.000000
vt 0.000000 0.000000
vt 0.000000 0.000000
vt 0.000000 0.000000
vt 0.000000 0.000000
vt 0.000000 0.000000
vt 0.000000 0.000000
vt 0.000000 0.000000
vt 0.000000 0.000000
vt 0.000000 0.000000
vt 0.000000 0.000000
vt 0.000000 0.000000
vt 0.000000 0.000000
vt 0.000000 0.000000
vt 0.000000 0.000000
vt 0.000000 0.000000
vt 0.625000 0.292551
vt 0.625000 0.875000
vt 0.375000 0.875000
vt 0.375000 0.292551
vn -1.0000 0.0000 0.0000
vn 0.0000 0.0000 -1.0000
vn 1.0000 0.0000 0.0000
vn 0.0000 0.0000 1.0000
vn 0.0000 -1.0000 0.0000
vn 0.0000 1.0000 0.0000
vn 0.0037 1.0000 0.0083
vn -0.0004 0.0002 -1.0000
vn -0.0000 -1.0000 -0.0020
vn -0.0000 1.0000 -0.0001
vn 0.0002 -0.0000 -1.0000
vn -0.0000 1.0000 -0.0005
vn 0.0013 0.0000 1.0000
vn -1.0000 0.0000 0.0004
vn -0.0094 0.0000 1.0000
vn -0.0002 -0.0001 -1.0000
vn 0.0008 -0.0003 -1.0000
vn -0.0092 -0.9999 0.0090
vn 1.0000 -0.0006 -0.0001
vn -1.0000 0.0002 -0.0000
vn 0.0000 1.0000 -0.0070
vn -1.0000 0.0001 0.0001
vn 0.0016 0.0000 -1.0000
vn -0.0059 -1.0000 -0.0001
vn -1.0000 0.0003 0.0002
vn 0.0020 1.0000 0.0000
vn 0.0008 -0.0000 -1.0000
vn -1.0000 -0.0000 0.0001
vn 1.0000 -0.0002 0.0003
vn 0.0008 1.0000 0.0027
usemtl Material
s off
f 1/1/1 2/2/1 4/3/1 3/4/1
f 3/4/2 4/3/2 8/5/2 7/6/2
f 7/6/3 8/5/3 6/7/3 5/8/3
f 91/9/4 92/10/4 2/11/4 1/12/4
f 3/13/5 7/6/5 5/8/5 87/14/5 91/15/5 1/16/5
f 8/5/6 4/17/6 2/18/6 92/19/6 88/20/6 6/7/6
f 16/21/1 15/22/1 13/23/1 14/24/1
f 9/25/7 19/26/7 21/27/7 86/28/7 90/29/7 13/23/7 15/22/7 82/30/7 79/31/7 76/32/7 72/33/7 68/34/7 59/35/7 60/36/7 11/37/7
f 10/38/3 9/25/3 11/37/3 12/39/3
f 17/40/2 19/26/2 9/25/2 10/38/2
f 22/41/5 18/42/5 20/43/5 57/44/5
f 14/24/5 89/45/5 85/46/5 20/47/5 17/40/5 10/38/5 12/39/5 65/48/5 64/49/5 71/50/5 73/51/5 80/52/5 81/53/5 16/21/5
f 12/39/4 11/37/4 60/54/4 66/55/4
f 85/46/2 86/28/2 21/27/2 20/47/2
f 24/56/1 25/57/1 27/58/1 26/59/1
f 26/59/2 27/58/2 31/60/2 30/61/2
f 30/61/3 31/60/3 29/62/3 28/63/3
f 26/64/5 30/61/5 28/63/5 22/41/5 57/44/5 24/65/5
f 33/66/1 34/67/1 36/68/1 35/69/1
f 37/70/4 38/71/4 34/72/4 33/73/4
f 37/70/3 39/74/3 40/75/3 38/71/3
f 41/76/1 42/77/1 44/78/1 43/79/1
f 70/80/8 69/81/8 48/82/8 47/83/8
f 47/83/3 48/82/3 46/84/3 45/85/3
f 45/85/4 46/84/4 42/86/4 41/87/4
f 43/88/9 75/89/9 70/90/9 47/83/9 45/85/9 41/91/9
f 48/82/10 69/92/10 74/93/10 44/94/10 42/95/10 46/84/10
f 49/96/1 50/97/1 52/98/1 51/99/1
f 78/100/11 77/101/11 56/102/11 55/103/11
f 55/103/3 56/102/3 54/104/3 53/105/3
f 53/105/4 54/104/4 50/106/4 49/107/4
f 51/108/5 83/109/5 78/110/5 55/103/5 53/105/5 49/111/5
f 56/102/12 77/112/12 84/113/12 52/114/12 50/115/12 54/104/12
f 23/116/13 22/41/13 28/63/13 32/117/13
f 22/41/3 23/116/3 19/118/3 18/42/3
f 21/119/14 58/120/14 57/121/14 20/43/14
f 24/65/15 57/44/15 58/120/15 25/57/15
f 58/120/6 21/119/6 19/118/6 23/116/6
f 25/57/6 58/120/6 23/116/6 32/117/6 31/60/6 27/58/6
f 33/73/5 35/69/5 63/122/5 67/123/5 39/74/5 37/70/5
f 67/123/5 63/122/5 64/124/5 66/55/5
f 39/74/16 67/123/16 61/125/16 40/75/16
f 36/68/17 62/126/17 63/122/17 35/69/17
f 62/126/18 59/127/18 60/54/18 61/125/18
f 62/126/19 63/122/19 64/124/19 59/127/19
f 61/125/20 60/54/20 66/55/20 67/123/20
f 34/72/21 38/71/21 40/75/21 61/125/21 62/126/21 36/68/21
f 75/89/22 74/128/22 72/129/22 73/130/22
f 44/94/23 74/93/23 75/89/23 43/88/23
f 74/128/24 72/129/24 68/131/24 69/132/24
f 70/80/25 69/81/25 68/131/25 71/133/25
f 59/127/4 68/131/4 71/50/4 64/124/4
f 76/32/26 79/31/26 82/30/26 84/113/26 77/112/26
f 51/108/27 52/114/27 84/113/27 83/109/27
f 83/109/28 84/113/28 82/30/28 81/134/28
f 78/100/29 80/135/29 79/136/29 77/101/29
f 80/135/4 73/130/4 72/129/4 79/136/4
f 15/22/4 16/21/4 81/134/4 82/30/4
f 81/134/5 80/135/5 78/110/5 83/109/5
f 70/90/30 71/50/30 73/130/30 75/89/30
f 90/29/6 86/28/6 88/20/6 92/137/6
f 85/46/3 87/14/3 88/138/3 86/28/3
f 5/8/4 6/7/4 88/138/4 87/139/4
f 14/24/2 13/23/2 90/29/2 89/45/2
f 89/45/1 90/29/1 92/137/1 91/140/1
f 85/46/5 89/45/5 91/140/5 87/14/5
l 17 18
l 29 32
l 29 23
